<svg id="icon_img_change" data-name="icon img change" xmlns="http://www.w3.org/2000/svg" xmlns:xlink="http://www.w3.org/1999/xlink" width="110" height="109.999" viewBox="0 0 110 109.999">
  <defs>
    <clipPath id="clip-path">
      <rect id="Rectangle_919" data-name="Rectangle 919" width="110" height="109.999" fill="#ffc20e"/>
    </clipPath>
  </defs>
  <g id="Group_2105" data-name="Group 2105" clip-path="url(#clip-path)">
    <path id="Path_1387" data-name="Path 1387" d="M55,110a55,55,0,1,1,55-55,55.063,55.063,0,0,1-55,55M55,3.524A51.476,51.476,0,1,0,106.476,55,51.534,51.534,0,0,0,55,3.524" fill="#ffc20e"/>
    <path id="Path_1388" data-name="Path 1388" d="M66.031,60.538a2.289,2.289,0,1,0-2.289-2.289,2.289,2.289,0,0,0,2.289,2.289" transform="translate(-24.118 -21.174)" fill="#ffc20e"/>
    <path id="Path_1389" data-name="Path 1389" d="M66.309,49.746H39.591V70.963H66.309Zm-1.762,1.762v17.6l-4.956-6.65a1.238,1.238,0,0,0-1.845,0L54.964,66.2l-4.8-6.434a1.238,1.238,0,0,0-1.845,0l-6.97,9.352v-17.6Z" transform="translate(-14.98 -18.822)" fill="#ffc20e"/>
    <path id="Path_1390" data-name="Path 1390" d="M120.821,103.867a2.289,2.289,0,1,0-2.289-2.289,2.288,2.288,0,0,0,2.289,2.289" transform="translate(-44.849 -37.568)" fill="#ffc20e"/>
    <path id="Path_1391" data-name="Path 1391" d="M94.382,114.292H121.1V93.075H94.382Zm24.957-19.455v17.6l-4.957-6.65a1.237,1.237,0,0,0-1.844,0l-2.782,3.733-4.8-6.434a1.238,1.238,0,0,0-1.846,0l-6.97,9.352v-17.6Z" transform="translate(-35.711 -35.217)" fill="#ffc20e"/>
    <path id="Path_1392" data-name="Path 1392" d="M73.62,105H64.295a5.837,5.837,0,0,1-5.83-5.778l-.1-9.052L62,93.735a.881.881,0,0,0,1.235-1.257l-5.147-5.057h0l0,0h0a.889.889,0,0,0-.286-.186l-.021-.006a.878.878,0,0,0-.309-.058h-.01a.875.875,0,0,0-.316.065l-.018.006a.875.875,0,0,0-.287.2L51.775,92.58a.881.881,0,1,0,1.257,1.235l3.574-3.637.1,9.061a7.6,7.6,0,0,0,7.583,7.524H73.62a.881.881,0,0,0,0-1.762" transform="translate(-19.495 -32.981)" fill="#ffc20e"/>
    <path id="Path_1393" data-name="Path 1393" d="M98.676,57.989a5.837,5.837,0,0,1,5.83,5.779l.1,9.052-3.629-3.565a.881.881,0,0,0-1.235,1.257l5.147,5.057h0l0,0h0a.863.863,0,0,0,.283.186l.015,0a.863.863,0,0,0,.316.061h.01a.877.877,0,0,0,.311-.063l.019-.006a.889.889,0,0,0,.287-.193h0L111.2,70.41a.881.881,0,0,0-1.257-1.235l-3.575,3.638-.1-9.062a7.6,7.6,0,0,0-7.584-7.524H89.351a.881.881,0,0,0,0,1.762h9.325" transform="translate(-33.474 -21.275)" fill="#ffc20e"/>
  </g>
</svg>
