<svg xmlns="http://www.w3.org/2000/svg" xmlns:xlink="http://www.w3.org/1999/xlink" width="95.751" height="84.667" viewBox="0 0 95.751 84.667">
  <defs>
    <clipPath id="clip-path">
      <rect id="Rectangle_951" data-name="Rectangle 951" width="95.751" height="84.667" fill="#ffc20e"/>
    </clipPath>
  </defs>
  <g id="icon_montage" data-name="icon montage" transform="translate(0 0)">
    <g id="Group_2143" data-name="Group 2143" transform="translate(0 0)" clip-path="url(#clip-path)">
      <path id="Path_1434" data-name="Path 1434" d="M70.191,84.668a9.417,9.417,0,0,1-6.641-2.714L49.262,67.633l-15,15a6.4,6.4,0,0,1-9.04,0l-6.3-6.3a6.415,6.415,0,0,1,0-9.041L33.929,52.3,28.2,46.6a10.729,10.729,0,0,1-6.456,2.129H21.7a10.825,10.825,0,0,1-7.661-3.185L3.184,34.724a10.921,10.921,0,0,1-.038-15.376L3.4,19.1a1.914,1.914,0,0,1,2.706,0l11.42,11.387,7.861-7.861L14,11.2a1.915,1.915,0,0,1,0-2.706l.253-.253a10.919,10.919,0,0,1,15.368.029L40.45,19.134A10.87,10.87,0,0,1,41.5,33.292l5.712,5.737L58.532,27.723l-.2-.2a3.4,3.4,0,0,1-.747-3.678l-.89-.89a3.4,3.4,0,0,1-3.755-.715l-5.447-5.447a3.346,3.346,0,0,1-1.011-2.352,3.43,3.43,0,0,1,.995-2.472L58.439,1a3.429,3.429,0,0,1,4.843,0L68.715,6.47a3.375,3.375,0,0,1,.991,2.4,3.413,3.413,0,0,1-.169,1.064l.984.984a3.408,3.408,0,0,1,3.654.758l17.08,17.081a3.4,3.4,0,0,1,0,4.807l-.083.083,1.049,1.034a12.115,12.115,0,0,1,.01,17.085,3.313,3.313,0,0,1-2.382.967,3.179,3.179,0,0,1-2.26-.984l-7.275-7.244-.1.1a3.4,3.4,0,0,1-4.807,0l-1.56-1.559L62.538,54.357,76.852,68.671a9.359,9.359,0,0,1-6.662,16M51.97,64.924,66.251,79.24a5.648,5.648,0,0,0,7.9-.01,5.59,5.59,0,0,0-.009-7.85L59.829,57.065Zm9.271-34.494L21.631,70a2.586,2.586,0,0,0,0,3.624l6.3,6.3a2.6,2.6,0,0,0,3.624,0L58.464,53.014,58.475,53l.011-.011L71.143,40.335ZM28.274,42.055a1.91,1.91,0,0,1,1.351.558L36.638,49.6l7.868-7.86L37.52,34.72a1.915,1.915,0,0,1,0-2.706l.254-.254a7.023,7.023,0,0,0-.037-9.92L26.917,10.981a7.108,7.108,0,0,0-8.731-1.008l11.263,11.3a1.916,1.916,0,0,1,0,2.707L18.881,34.541a1.915,1.915,0,0,1-2.706,0L4.88,23.28A7.115,7.115,0,0,0,5.9,32.021l10.847,10.81A7.021,7.021,0,0,0,21.714,44.9h.029a6.909,6.909,0,0,0,4.924-2.026l.254-.254a1.911,1.911,0,0,1,1.354-.561M83.023,41.8,89.9,48.65a8.289,8.289,0,0,0-.381-11.25l-1.06-1.044Zm-7.6-2.6,2.387,2.387,1.142-1.142h0l8.13-8.13,0,0,.023-.023,1.13-1.13L71.771,14.689l-.052.053-.041.042-.047.045L61.466,24.959l-.134.147L74.985,38.758a1.966,1.966,0,0,1,.442.442M59.573,20.416l.511.512,7.527-7.5-.511-.511ZM50.487,14.37l4.856,4.855.121-.121.044-.045.05-.049L65.715,8.886,60.859,4Z" transform="translate(0 0)" fill="#ffc20e"/>
    </g>
  </g>
</svg>
