<svg id="icon_infinity" data-name="icon infinity" xmlns="http://www.w3.org/2000/svg" xmlns:xlink="http://www.w3.org/1999/xlink" width="150" height="93.244" viewBox="0 0 150 93.244">
  <defs>
    <clipPath id="clip-path">
      <rect id="Rectangle_914" data-name="Rectangle 914" width="150" height="93.244" fill="#c1c1c1"/>
    </clipPath>
  </defs>
  <g id="Group_2097" data-name="Group 2097" clip-path="url(#clip-path)">
    <path id="Path_1374" data-name="Path 1374" d="M107.474,0A42.207,42.207,0,0,0,75,15.068,42.528,42.528,0,1,0,42.526,85.059,42.2,42.2,0,0,0,75,69.984a42.46,42.46,0,0,0,32.472,15.075c.155,0,.3,0,.447-.005v6.513a1.676,1.676,0,0,0,2.592,1.4l24.995-16.3a1.676,1.676,0,0,0,0-2.808l-24.995-16.3a1.676,1.676,0,0,0-2.592,1.4v5.963c-.149,0-.293.01-.447.01a22.415,22.415,0,1,1,22.416-22.415,22.224,22.224,0,0,1-4.483,13.459A1.676,1.676,0,1,0,128.085,58,25.768,25.768,0,1,0,83.829,32.3a41.984,41.984,0,0,0-6.722-14.523,39.177,39.177,0,0,1,62.327,47.409,1.676,1.676,0,0,0,2.733,1.941A42.53,42.53,0,0,0,107.474,0M97.962,66.486a25.8,25.8,0,0,0,9.512,1.807c.8,0,1.549-.034,2.282-.1.031,0,.059-.013.089-.018a1.53,1.53,0,0,0,.169-.034,1.719,1.719,0,0,0,.307-.111c.05-.024.1-.05.144-.078s.089-.057.132-.089.085-.067.125-.1.077-.073.113-.112.069-.08.1-.123.063-.087.091-.134a1.484,1.484,0,0,0,.076-.141,1.534,1.534,0,0,0,.064-.149,1.625,1.625,0,0,0,.049-.158,1.6,1.6,0,0,0,.033-.157,1.62,1.62,0,0,0,.017-.174c0-.03.009-.058.009-.088v-4.46l20.251,13.2L111.273,88.474V83.332c0-.015,0-.028,0-.043s0-.029,0-.044c0-.044-.014-.084-.019-.126a1.641,1.641,0,0,0-.026-.166,1.543,1.543,0,0,0-.05-.159,1.574,1.574,0,0,0-.055-.151c-.022-.049-.05-.094-.076-.141s-.055-.1-.087-.141-.059-.073-.089-.108a1.662,1.662,0,0,0-.127-.139c-.027-.025-.056-.047-.085-.07a1.606,1.606,0,0,0-.176-.13c-.023-.015-.049-.026-.074-.04a1.643,1.643,0,0,0-.219-.1c-.025-.009-.05-.015-.075-.023a1.657,1.657,0,0,0-.237-.061c-.038-.006-.077-.007-.116-.012-.054-.005-.107-.016-.163-.016-.016,0-.03,0-.045,0s-.027,0-.041,0c-.637.033-1.3.049-2.037.049A39.133,39.133,0,0,1,76.331,66.3,38.809,38.809,0,0,1,68.3,42.526c0-.011,0-.022,0-.033a25.781,25.781,0,1,0-2.12,10.258,42.041,42.041,0,0,0,6.717,14.526A39.175,39.175,0,1,1,42.526,3.352,39.177,39.177,0,0,1,81.707,42.526a25.657,25.657,0,0,0,16.255,23.96M64.946,42.527A22.416,22.416,0,1,1,42.53,20.111,22.442,22.442,0,0,1,64.946,42.527" transform="translate(0 0)" fill="#c1c1c1"/>
  </g>
</svg>
