<svg id="icon_img" data-name="icon img" xmlns="http://www.w3.org/2000/svg" xmlns:xlink="http://www.w3.org/1999/xlink" width="110" height="109.999" viewBox="0 0 110 109.999">
  <defs>
    <clipPath id="clip-path">
      <rect id="Rectangle_920" data-name="Rectangle 920" width="110" height="109.999" fill="#ffc20e"/>
    </clipPath>
  </defs>
  <g id="Group_2107" data-name="Group 2107" clip-path="url(#clip-path)">
    <path id="Path_1394" data-name="Path 1394" d="M55,110a55,55,0,1,1,55-55,55.063,55.063,0,0,1-55,55M55,3.524A51.476,51.476,0,1,0,106.476,55,51.534,51.534,0,0,0,55,3.524" fill="#ffc20e"/>
    <path id="Path_1395" data-name="Path 1395" d="M103.278,101.631a3.032,3.032,0,1,0-3.032-3.032,3.032,3.032,0,0,0,3.032,3.032" transform="translate(-37.93 -36.159)" fill="#ffc20e"/>
    <path id="Path_1396" data-name="Path 1396" d="M88.313,87.794v1.762h13.46v23.993l-6.853-9.194a1.64,1.64,0,0,0-2.444,0L88.791,109.3l-6.354-8.525a1.641,1.641,0,0,0-2.445,0L70.471,113.55V98.226H68.709v17.106h34.826V87.794Z" transform="translate(-25.997 -33.219)" fill="#ffc20e"/>
    <path id="Path_1397" data-name="Path 1397" d="M94.88,45.037,77.334,63.655l-7.787,8.261L58.3,60.082a3.524,3.524,0,0,0-5.109,4.856L66.626,79.075a3.494,3.494,0,0,0,1.683.972,3.423,3.423,0,0,0,4.346-1.177l23.11-33.112a.573.573,0,0,0-.884-.72" transform="translate(-19.759 -16.973)" fill="#ffc20e"/>
  </g>
</svg>
