<svg xmlns="http://www.w3.org/2000/svg" xmlns:xlink="http://www.w3.org/1999/xlink" width="67.913" height="101" viewBox="0 0 67.913 101">
  <defs>
    <clipPath id="clip-path">
      <rect id="Rectangle_933" data-name="Rectangle 933" width="67.913" height="101" transform="translate(-3 -3)" fill="none" stroke="#707070" stroke-width="4"/>
    </clipPath>
  </defs>
  <g id="icon_add" data-name="icon add" transform="translate(3 3)">
    <g id="Group_2131" data-name="Group 2131" transform="translate(0 0)" clip-path="url(#clip-path)">
      <path id="Path_1400" data-name="Path 1400" d="M23.268,13.889h0a5.155,5.155,0,0,1,5.245,4.871L29.145,32.5a5.363,5.363,0,0,1,3.742-1.53,5.141,5.141,0,0,1,5.186,4.167,5.32,5.32,0,0,1,4.209-2.068l0,0a5.143,5.143,0,0,1,5.186,4.165,5.314,5.314,0,0,1,4.209-2.066c2.867-.015,5.38,2.179,5.245,4.873l-.985,19.817c-.8,16.112-24.437,23.849-34.155,9.966L4.924,45.746C3.348,43.494,3.81,40.038,6.41,38.953c3.753-1.563,7.637,1.993,9.224,4.262l3.193,4.559-.735-28.95A5.041,5.041,0,0,1,23.268,13.889Z" transform="translate(4.876 16.863)" fill="none" stroke="#fff" stroke-linejoin="round" stroke-width="4"/>
      <path id="Path_1401" data-name="Path 1401" d="M21.581,42.662a21.075,21.075,0,1,1,12.342-3.988" transform="translate(0.607 0.607)" fill="none" stroke="#fff" stroke-linecap="round" stroke-linejoin="round" stroke-width="4"/>
      <line id="Line_2" data-name="Line 2" x2="16.781" transform="translate(13.902 22.188)" fill="none" stroke="#fff" stroke-linecap="round" stroke-linejoin="round" stroke-width="4"/>
      <line id="Line_3" data-name="Line 3" y2="16.781" transform="translate(22.293 13.798)" fill="none" stroke="#fff" stroke-linecap="round" stroke-linejoin="round" stroke-width="4"/>
    </g>
  </g>
</svg>
