<svg xmlns="http://www.w3.org/2000/svg" width="151.5" height="87.111" viewBox="0 0 151.5 87.111">
  <g id="icon_time_money" data-name="icon time_money" transform="translate(0.75 0.75)">
    <g id="Group_2146" data-name="Group 2146">
      <path id="Path_1375" data-name="Path 1375" d="M187.215,0a42.716,42.716,0,0,0-32.194,14.627q.919,1.049,1.769,2.157a40.063,40.063,0,1,1,0,52.041q-.85,1.107-1.769,2.158A42.8,42.8,0,1,0,187.215,0" transform="translate(-80.021)" fill="#ffc20e" stroke="#ffc20e" stroke-width="1.5"/>
      <path id="Path_1376" data-name="Path 1376" d="M44.177,82.833V79.651a1.372,1.372,0,0,0-2.744,0v3.182A40.1,40.1,0,0,1,2.777,44.177H5.96a1.371,1.371,0,1,0,0-2.743H2.777A40.1,40.1,0,0,1,41.434,2.778V5.96a1.372,1.372,0,0,0,2.744,0V2.778A39.973,39.973,0,0,1,73.224,16.791Q74.077,15.68,75,14.627a42.806,42.806,0,1,0,0,56.357q-.922-1.052-1.775-2.164A39.975,39.975,0,0,1,44.177,82.833" transform="translate(0.001)" fill="#ffc20e" stroke="#ffc20e" stroke-width="1.5"/>
      <path id="Path_1377" data-name="Path 1377" d="M162.845,59.342h-3.182a1.371,1.371,0,1,0,0,2.743h3.182A39.833,39.833,0,0,1,155,84.515c.565.762,1.162,1.5,1.778,2.22a42.709,42.709,0,0,0,0-52.041c-.616.72-1.213,1.457-1.778,2.22a39.833,39.833,0,0,1,7.842,22.43" transform="translate(-80.012 -17.908)" fill="#ffc20e" stroke="#ffc20e" stroke-width="1.5"/>
      <path id="Path_1378" data-name="Path 1378" d="M153.118,34.61c.565-.762,1.162-1.5,1.778-2.22q-.851-1.107-1.769-2.158-.922,1.052-1.775,2.165.921,1.075,1.766,2.213" transform="translate(-78.127 -15.606)" fill="#ffc20e" stroke="#ffc20e" stroke-width="1.5"/>
      <path id="Path_1379" data-name="Path 1379" d="M153.118,137.672q-.844,1.139-1.766,2.213.853,1.111,1.775,2.165.919-1.049,1.769-2.158c-.616-.72-1.213-1.457-1.778-2.22" transform="translate(-78.127 -71.066)" fill="#ffc20e" stroke="#ffc20e" stroke-width="1.5"/>
      <path id="Path_1380" data-name="Path 1380" d="M99.114,63.6H88.385V44.319a1.372,1.372,0,1,0-2.743,0V64.974a1.372,1.372,0,0,0,1.372,1.372h12.1a1.371,1.371,0,1,0,0-2.743" transform="translate(-44.208 -22.169)" fill="#ffc20e" stroke="#ffc20e" stroke-width="1.5"/>
      <path id="Path_1381" data-name="Path 1381" d="M214.914,82.654a8.31,8.31,0,0,1-4.319-1.254l-.79,2.369a9.448,9.448,0,0,0,4.6,1.207v2.74h2.09V84.883c3.065-.51,4.69-2.6,4.69-4.876,0-2.508-1.44-3.994-4.551-5.108-2.6-.975-3.53-1.626-3.53-2.879,0-1.022.7-2.136,2.833-2.136a7.233,7.233,0,0,1,3.808,1.021l.744-2.275a8.372,8.372,0,0,0-3.855-1.022v-2.6h-2.09v2.74c-2.786.464-4.458,2.276-4.458,4.644,0,2.554,1.811,3.809,4.876,4.923,2.182.836,3.158,1.58,3.158,2.972s-1.254,2.369-3.2,2.369" transform="translate(-108.3 -33.556)" fill="#ffc20e" stroke="#ffc20e" stroke-width="1.5"/>
    </g>
  </g>
</svg>
