<svg id="icon_magnet" data-name="icon magnet" xmlns="http://www.w3.org/2000/svg" xmlns:xlink="http://www.w3.org/1999/xlink" width="110" height="109.999" viewBox="0 0 110 109.999">
  <defs>
    <clipPath id="clip-path">
      <rect id="Rectangle_918" data-name="Rectangle 918" width="110" height="109.999" fill="#ffc20e"/>
    </clipPath>
  </defs>
  <g id="Group_2103" data-name="Group 2103" clip-path="url(#clip-path)">
    <path id="Path_1385" data-name="Path 1385" d="M55,110a55,55,0,1,1,55-55,55.063,55.063,0,0,1-55,55M55,3.524A51.476,51.476,0,1,0,106.476,55,51.534,51.534,0,0,0,55,3.524" fill="#ffc20e"/>
    <path id="Path_1386" data-name="Path 1386" d="M93.039,54.647l-7.767-.006a1.514,1.514,0,0,0-1.514,1.591l1.125,22.074a7.6,7.6,0,1,1-15.2,0L70.8,56.235a1.514,1.514,0,0,0-1.512-1.591H61.516A1.514,1.514,0,0,0,60,56.08L58.875,78.3a18.4,18.4,0,1,0,36.8,0L94.549,56.085a1.514,1.514,0,0,0-1.511-1.438M77.28,95.5A17.23,17.23,0,0,1,60.072,78.3l.738-13.726a1.515,1.515,0,0,1,1.515-1.433l5.367.008a1.515,1.515,0,0,1,1.51,1.6L68.478,78.3a8.8,8.8,0,1,0,17.606,0l-.72-13.561a1.514,1.514,0,0,1,1.513-1.594l5.361,0a1.514,1.514,0,0,1,1.511,1.434l.73,13.726A17.211,17.211,0,0,1,77.28,95.5" transform="translate(-22.277 -20.674)" fill="#ffc20e"/>
  </g>
</svg>
