<svg xmlns="http://www.w3.org/2000/svg" width="74.763" height="110.751" viewBox="0 0 74.763 110.751">
  <g id="icon_eco" data-name="icon eco" transform="translate(73.979 0.75) rotate(90)">
    <g id="Group_2145" data-name="Group 2145">
      <path id="Path_1382" data-name="Path 1382" d="M109.25,36.593a1.418,1.418,0,0,1-1.419,1.419H94.615c.077.084.152.17.226.258,5.037,6,.726,17.642-9.82,26.491s-22.754,11.076-27.793,5.07a10.1,10.1,0,0,1-1.97-8.009q-.827.536-1.686,1.032C43.152,68.87,32.288,68.9,28.839,62.93c-1.486-2.575-1.333-5.912.367-9.423-1.007.076-2.017.114-3.023.114C11.745,53.621,0,45.982,0,36.593S11.745,19.565,26.183,19.565c1.007,0,2.017.038,3.023.114-1.7-3.511-1.853-6.848-.367-9.423,3.448-5.973,14.312-5.94,24.731.076q.858.5,1.686,1.032a10.1,10.1,0,0,1,1.97-8.009h0C59.734.367,64.091-.673,69.5.426a36.385,36.385,0,0,1,15.524,8c10.546,8.849,14.86,20.483,9.82,26.491-.074.087-.149.173-.226.258h13.217a1.418,1.418,0,0,1,1.419,1.419M89,35.174a6.472,6.472,0,0,0,3.665-2.082c3.883-4.628-.455-14.928-9.47-22.493A33.525,33.525,0,0,0,68.931,3.207c-4.338-.882-7.723-.183-9.53,1.971-1.705,2.034-1.886,5.277-.507,9.131a1.419,1.419,0,0,1-2.231,1.579,34.565,34.565,0,0,0-4.511-3.1C43.411,7.743,33.861,7.232,31.3,11.674c-1.269,2.2-.643,5.455,1.724,8.925a1.419,1.419,0,0,1-1.38,2.2,37.43,37.43,0,0,0-5.458-.4c-12.873,0-23.346,6.366-23.346,14.19S13.31,50.783,26.183,50.783a37.474,37.474,0,0,0,5.458-.4,1.419,1.419,0,0,1,1.38,2.2c-2.368,3.469-3,6.723-1.723,8.925,2.564,4.442,12.115,3.932,20.855-1.114a34.649,34.649,0,0,0,4.511-3.1,1.419,1.419,0,0,1,2.23,1.579c-1.379,3.854-1.2,7.1.507,9.13,3.883,4.627,14.78,2.145,23.8-5.42s13.353-17.865,9.47-22.494A6.474,6.474,0,0,0,89,38.011h-1.67L76.265,49.077a1.419,1.419,0,0,1-2.006-2.006l9.059-9.06h-26L46.248,49.077a1.419,1.419,0,0,1-2.007-2.006l9.06-9.06H32.336a1.419,1.419,0,1,1,0-2.838H53.3l-9.06-9.06a1.419,1.419,0,0,1,2.007-2.006L57.314,35.174h26l-9.059-9.06a1.419,1.419,0,1,1,2.006-2.006L87.331,35.174Z" transform="translate(0.001 0)" fill="#ffc20e" stroke="#ffc20e" stroke-width="1.5"/>
    </g>
  </g>
</svg>
