<svg width="20" height="20" viewBox="0 0 20 20" fill="none" xmlns="http://www.w3.org/2000/svg">
<path d="M15 0H5C2.23858 0 0 2.23858 0 5V15C0 17.7614 2.23858 20 5 20H15C17.7614 20 20 17.7614 20 15V5C20 2.23858 17.7614 0 15 0Z" fill="#052145"/>
<path d="M15 1H5C2.79086 1 1 2.79086 1 5V15C1 17.2091 2.79086 19 5 19H15C17.2091 19 19 17.2091 19 15V5C19 2.79086 17.2091 1 15 1Z" stroke="#052145" stroke-width="2"/>
<path d="M5.24023 9.55737L9.05859 13.03L14.7578 6.96948" stroke="#FBC200" stroke-width="2" stroke-linecap="round"/>
</svg>
