<svg width="24" height="24" viewBox="0 0 24 24" fill="none" xmlns="http://www.w3.org/2000/svg">
<mask id="path-1-inside-1_179_28422" fill="white">
<rect x="3" y="13" width="18" height="10" rx="1"/>
</mask>
<rect x="3" y="13" width="18" height="10" rx="1" stroke="#052145" stroke-width="3" mask="url(#path-1-inside-1_179_28422)"/>
<mask id="path-2-inside-2_179_28422" fill="white">
<rect x="1" y="7" width="22" height="7" rx="1"/>
</mask>
<rect x="1" y="7" width="22" height="7" rx="1" stroke="#052145" stroke-width="3" mask="url(#path-2-inside-2_179_28422)"/>
<path d="M12.4114 6.99627C13.5105 5.18654 14.9746 3.2803 16.4003 2.33211C17.1082 1.86127 17.7091 1.69156 18.2004 1.76763C18.6635 1.83932 19.2101 2.15888 19.7617 3.08515C20.3166 4.01695 20.3174 4.62178 20.1577 5.0229C19.9852 5.45634 19.5402 5.87421 18.7549 6.23572C17.1808 6.96036 14.7281 7.23419 12.5567 7.24933C12.475 7.2499 12.4278 7.21337 12.4021 7.16818C12.3766 7.12322 12.3695 7.06517 12.4114 6.99627Z" stroke="#052145" stroke-width="1.5"/>
<path d="M11.5886 6.99627C10.4895 5.18654 9.02535 3.2803 7.59972 2.33211C6.89181 1.86127 6.29093 1.69156 5.79958 1.76763C5.33653 1.83932 4.78991 2.15888 4.23828 3.08515C3.68335 4.01695 3.68264 4.62178 3.84231 5.0229C4.01483 5.45634 4.4598 5.87421 5.24509 6.23572C6.81916 6.96036 9.27192 7.23419 11.4433 7.24933C11.525 7.2499 11.5722 7.21337 11.5979 7.16818C11.6234 7.12322 11.6305 7.06517 11.5886 6.99627Z" stroke="#052145" stroke-width="1.5"/>
<line x1="12" y1="8" x2="12" y2="22" stroke="#052145" stroke-width="2"/>
</svg>
