<svg width="25" height="24" viewBox="0 0 25 24" fill="none" xmlns="http://www.w3.org/2000/svg">
<g clip-path="url(#clip0_193_35634)">
<path fill-rule="evenodd" clip-rule="evenodd" d="M23.5 3C24.0523 3 24.5 3.44772 24.5 4V10C24.5 10.5523 24.0523 11 23.5 11H17.5C16.9477 11 16.5 10.5523 16.5 10C16.5 9.44772 16.9477 9 17.5 9H22.5V4C22.5 3.44772 22.9477 3 23.5 3Z" fill="black"/>
<path fill-rule="evenodd" clip-rule="evenodd" d="M13.6274 4.08125C11.91 3.83765 10.16 4.15882 8.64109 4.99636C7.12214 5.83389 5.91655 7.14241 5.20598 8.72474C4.49542 10.3071 4.31838 12.0775 4.70154 13.7692C5.0847 15.4609 6.00731 16.9822 7.33033 18.1039C8.65335 19.2257 10.3051 19.887 12.0367 19.9883C13.7683 20.0896 15.4859 19.6254 16.9307 18.6656C18.3755 17.7058 19.4692 16.3024 20.047 14.6669C20.231 14.1462 20.8023 13.8732 21.323 14.0571C21.8437 14.2411 22.1167 14.8124 21.9328 15.3331C21.2105 17.3775 19.8434 19.1317 18.0374 20.3315C16.2314 21.5312 14.0844 22.1115 11.9199 21.9849C9.75541 21.8583 7.69072 21.0316 6.03694 19.6294C4.38316 18.2273 3.2299 16.3256 2.75095 14.211C2.272 12.0963 2.4933 9.88334 3.3815 7.90543C4.26971 5.92752 5.7767 4.29187 7.67538 3.24495C9.57407 2.19804 11.7616 1.79658 13.9083 2.10107C16.0498 2.40483 18.0351 3.39476 19.5662 4.92215L24.1854 9.272C24.5875 9.65063 24.6065 10.2835 24.2279 10.6856C23.8493 11.0876 23.2164 11.1067 22.8143 10.728L18.1843 6.36803C18.177 6.3611 18.1697 6.35405 18.1626 6.3469C16.9364 5.12 15.3448 4.32484 13.6274 4.08125Z" fill="black"/>
</g>
<defs>
<clipPath id="clip0_193_35634">
<rect width="24" height="24" fill="white" transform="translate(0.5)"/>
</clipPath>
</defs>
</svg>
