<svg width="16" height="16" viewBox="0 0 16 16" fill="none" xmlns="http://www.w3.org/2000/svg">
<g clip-path="url(#clip0_322_31145)">
<path fill-rule="evenodd" clip-rule="evenodd" d="M8.0013 2.00008C4.68759 2.00008 2.0013 4.68637 2.0013 8.00008C2.0013 11.3138 4.68759 14.0001 8.0013 14.0001C11.315 14.0001 14.0013 11.3138 14.0013 8.00008C14.0013 4.68637 11.315 2.00008 8.0013 2.00008ZM0.667969 8.00008C0.667969 3.94999 3.95121 0.666748 8.0013 0.666748C12.0514 0.666748 15.3346 3.94999 15.3346 8.00008C15.3346 12.0502 12.0514 15.3334 8.0013 15.3334C3.95121 15.3334 0.667969 12.0502 0.667969 8.00008Z" fill="#3C66B0"/>
<path fill-rule="evenodd" clip-rule="evenodd" d="M8.0013 3.33341C8.36949 3.33341 8.66797 3.63189 8.66797 4.00008V7.58806L10.9661 8.73713C11.2954 8.90179 11.4289 9.30224 11.2643 9.63156C11.0996 9.96088 10.6991 10.0944 10.3698 9.9297L7.70316 8.59637C7.4773 8.48344 7.33463 8.2526 7.33463 8.00008V4.00008C7.33463 3.63189 7.63311 3.33341 8.0013 3.33341Z" fill="#3C66B0"/>
</g>
<defs>
<clipPath id="clip0_322_31145">
<rect width="16" height="16" fill="white"/>
</clipPath>
</defs>
</svg>
